<svg width="28" height="28" viewBox="0 0 28 28" fill="none" xmlns="http://www.w3.org/2000/svg">
<path d="M23.3333 8.16667H21.3057C21.9653 7.58519 22.4889 6.86569 22.8393 6.0592C23.1897 5.2527 23.3584 4.37898 23.3333 3.5C23.3333 3.19058 23.2104 2.89383 22.9916 2.67504C22.7728 2.45625 22.4761 2.33333 22.1667 2.33333C21.8572 2.33333 21.5605 2.45625 21.3417 2.67504C21.1229 2.89383 21 3.19058 21 3.5C21 6.559 18.2338 7.61833 16.1303 7.98117C16.9067 6.60456 17.3741 5.07543 17.5 3.5C17.5 2.57174 17.1313 1.6815 16.4749 1.02513C15.8185 0.368749 14.9283 0 14 0C13.0717 0 12.1815 0.368749 11.5251 1.02513C10.8687 1.6815 10.5 2.57174 10.5 3.5C10.6259 5.07543 11.0933 6.60456 11.8697 7.98117C9.76617 7.61833 7 6.559 7 3.5C7 3.19058 6.87708 2.89383 6.65829 2.67504C6.4395 2.45625 6.14275 2.33333 5.83333 2.33333C5.52391 2.33333 5.22717 2.45625 5.00838 2.67504C4.78958 2.89383 4.66667 3.19058 4.66667 3.5C4.6416 4.37898 4.81025 5.2527 5.16068 6.0592C5.5111 6.86569 6.0347 7.58519 6.69433 8.16667H4.66667C3.42899 8.16667 2.242 8.65833 1.36683 9.5335C0.491665 10.4087 0 11.5957 0 12.8333L0 14C0 14.6188 0.245833 15.2123 0.683417 15.6499C1.121 16.0875 1.71449 16.3333 2.33333 16.3333V22.1667C2.33519 23.7132 2.95036 25.1959 4.04392 26.2894C5.13748 27.383 6.62014 27.9981 8.16667 28H19.8333C21.3799 27.9981 22.8625 27.383 23.9561 26.2894C25.0496 25.1959 25.6648 23.7132 25.6667 22.1667V16.3333C26.2855 16.3333 26.879 16.0875 27.3166 15.6499C27.7542 15.2123 28 14.6188 28 14V12.8333C28 11.5957 27.5083 10.4087 26.6332 9.5335C25.758 8.65833 24.571 8.16667 23.3333 8.16667ZM14 2.33333C14.3094 2.33333 14.6062 2.45625 14.825 2.67504C15.0437 2.89383 15.1667 3.19058 15.1667 3.5C15.0258 4.73997 14.6285 5.93706 14 7.01517C13.3715 5.93706 12.9742 4.73997 12.8333 3.5C12.8333 3.19058 12.9562 2.89383 13.175 2.67504C13.3938 2.45625 13.6906 2.33333 14 2.33333ZM2.33333 12.8333C2.33333 12.2145 2.57917 11.621 3.01675 11.1834C3.45434 10.7458 4.04783 10.5 4.66667 10.5H12.8333V14H2.33333V12.8333ZM4.66667 22.1667V16.3333H12.8333V25.6667H8.16667C7.23841 25.6667 6.34817 25.2979 5.69179 24.6415C5.03542 23.9852 4.66667 23.0949 4.66667 22.1667ZM23.3333 22.1667C23.3333 23.0949 22.9646 23.9852 22.3082 24.6415C21.6518 25.2979 20.7616 25.6667 19.8333 25.6667H15.1667V16.3333H23.3333V22.1667ZM15.1667 14V10.5H23.3333C23.9522 10.5 24.5457 10.7458 24.9832 11.1834C25.4208 11.621 25.6667 12.2145 25.6667 12.8333V14H15.1667Z" fill="white"/>
</svg>
